<svg xmlns="http://www.w3.org/2000/svg" xmlns:xlink="http://www.w3.org/1999/xlink" width="1000.003" height="849.193"><defs><path id="a" d="M120.09 91.09h769.343v668.356H120.09z"/></defs><clipPath id="b"><use xlink:href="#a" overflow="visible"/></clipPath><g clip-path="url(#b)"><defs><path id="c" d="M120.09 91.09h769.343v668.356H120.09z"/></defs><clipPath id="d"><use xlink:href="#c" overflow="visible"/></clipPath><path clip-path="url(#d)" fill="#8994A3" d="M804.715 91.102c55.769 0 92.99 44.215 83.137 98.791L803.06 660.605c-9.81 54.582-62.98 98.841-118.747 98.841h-480.9c-44.159 0-76.574-27.783-83.322-66.429h477.392c55.723 0 108.894-44.223 118.741-98.804l84.793-470.712c2.044-11.352 1.95-22.22.188-32.399h3.51z"/></g><g><defs><path id="e" d="M230.675 180.875h769.326v668.287H230.675z"/></defs><clipPath id="f"><use xlink:href="#e" overflow="visible"/></clipPath><g clip-path="url(#f)"><defs><path id="g" d="M230.675 180.875h769.326v668.287H230.675z"/></defs><clipPath id="h"><use xlink:href="#g" overflow="visible"/></clipPath><path clip-path="url(#h)" fill="#313843" d="M915.26 180.843c55.761 0 92.983 44.263 83.175 98.845l-84.794 470.665c-9.857 54.575-62.979 98.841-118.747 98.841h-480.9c-44.158 0-76.569-27.789-83.322-66.442H708.02c55.769 0 108.939-44.214 118.786-98.79l84.798-470.712c2.038-11.358 1.901-22.22.145-32.406h3.511z"/></g></g><g><defs><path id="i" d="M.001.025h770.678v668.294H.001z"/></defs><clipPath id="j"><use xlink:href="#i" overflow="visible"/></clipPath><g clip-path="url(#j)"><defs><path id="k" d="M.001.025h770.678v668.294H.001z"/></defs><clipPath id="l"><use xlink:href="#k" overflow="visible"/></clipPath><path clip-path="url(#l)" fill="#536983" d="M685.968 0c55.768 0 92.983 44.215 83.137 98.791l-84.798 470.712c-9.854 54.583-62.975 98.804-118.741 98.804H84.662c-55.303 0-92.293-43.494-83.321-97.436H230.444l21.592-121.517h139.683l30.145-50.057H261.052l12.483-66.937h211.484L335.582 570.871h57.657l31.996-53.68h123.691l12.619 53.68h58.17L547.49 285.069H227.672l-20.577 114.229-9.019 50.057-11.516 71.507h-12.482l-114.063-.051 42.487-235.742H52.755L86.324 98.791C96.124 44.215 149.3 0 205.059 0h480.909z"/><path clip-path="url(#l)" fill="#536983" d="M514.52 367.437l23.858 102.417h-85.075z"/></g></g></svg>