<svg xmlns:xlink="http://www.w3.org/1999/xlink" xmlns="http://www.w3.org/2000/svg" class="logotype" viewBox="0 0 1834.8 1826.2" width="1834.8"  height="1826.2" ><style>.a{clip-path:url(#SVGID_12_);fill:#526A82;}.b{fill:#2A3642;}</style><defs><rect x="220.3" y="167.1" width="1411.6" height="1226.3"></rect></defs><clipPath><use xlink:href="#SVGID_1_"></use></clipPath><g clip-path="url(#SVGID_2_)"><defs><rect x="220.3" y="167.1" width="1411.6" height="1226.3"></rect></defs><clipPath><use xlink:href="#SVGID_3_"></use></clipPath><path d="M1476.5 167.2c102.3 0 170.6 81.1 152.5 181.3l-155.6 863.7c-18 100.2-115.6 181.4-217.9 181.4H373.2c-81 0-140.5-51-152.9-121.9h875.9c102.2 0 199.8-81.1 217.9-181.3l155.6-863.7c3.8-20.8 3.6-40.8 0.3-59.4H1476.5z" style="clip-path: url(&quot;#SVGID_4_&quot;);" fill="#818F9E"></path></g><defs><rect x="423.3" y="331.9" width="1411.6" height="1226.2"></rect></defs><clipPath><use xlink:href="#SVGID_5_"></use></clipPath><g clip-path="url(#SVGID_6_)"><defs><rect x="423.3" y="331.9" width="1411.6" height="1226.2"></rect></defs><clipPath><use xlink:href="#SVGID_7_"></use></clipPath><path d="M1679.4 331.8c102.3 0 170.6 81.2 152.6 181.4l-155.6 863.6c-18.1 100.1-115.6 181.4-217.9 181.4H576.1c-81 0-140.5-51-152.9-121.9h875.9c102.3 0 199.9-81.1 218-181.3l155.6-863.7c3.7-20.8 3.5-40.8 0.3-59.5H1679.4z" style="clip-path: url(&quot;#SVGID_8_&quot;);" fill="#2A3642"></path></g><defs><rect width="1414.1" height="1226.2"></rect></defs><clipPath><use xlink:href="#SVGID_9_"></use></clipPath><g clip-path="url(#SVGID_10_)"><defs><rect width="1414.1" height="1226.2"></rect></defs><clipPath><use xlink:href="#SVGID_11_"></use></clipPath><path d="M1258.6 0c102.3 0 170.6 81.1 152.5 181.3l-155.6 863.7c-18.1 100.2-115.5 181.3-217.9 181.3h-882.4c-101.5 0-169.3-79.8-152.9-178.8h301.4 15.5 75.3 28.1l39.6-223h256.3l55.3-91.8H479l22.9-122.8h32.5 61.9 35 35H795.3h94.7l-274.2 437.6h105.8l58.7-98.5h227l23.2 98.5h106.7l-132.5-524.4h-5.3 -54.1H795.3h-71.5 -77.1 -50.4 -46.2H417.7l-37.8 209.6 -16.5 91.8 -21.1 131.2h-22.9l-209.3-0.1 78-432.5H96.8l61.6-341.8C176.4 81.1 273.9 0 376.3 0H1258.6z" class="a" fill="#526A82"></path><polygon points="944.1 674.2 987.8 862.1 831.7 862.1 " class="a" fill="#526A82"></polygon></g><path d="M283.6 1782.3l47.8-105.6c0.9-2 2-3.5 3.5-4.5 1.5-1 4.1-1.5 7.8-1.5 4.4 0 6.6 3.3 6.6 9.8v118.6c0 4.8-2.2 7.3-6.5 7.3 -4.5 0-6.7-2.4-6.7-7.3v-100.9l-47.2 103.7c-1.3 3-3 4.5-5.1 4.5 -1.6 0-2.7-0.4-3.4-1.1 -0.7-0.7-1.4-1.9-2.1-3.4l-46.2-103.2v100.5c0 4.8-2.2 7.3-6.6 7.3 -4.4 0-6.6-2.4-6.6-7.3v-119.1c0-6.3 2.9-9.4 8.8-9.4 2.1 0 3.8 0.5 5.1 1.5 1.3 1 2.4 2.5 3.4 4.5L283.6 1782.3z" class="b" fill="#2A3642"></path><path d="M555.6 1794.9c0.3 0.9 0.6 1.7 1.1 2.5 0.4 0.8 0.6 1.5 0.6 2.2 0 2-0.7 3.6-2 4.9 -1.4 1.3-3 1.9-4.8 1.9 -3.1 0-5.4-1.7-6.8-5.1l-17.1-39.5h-61.8l-16.9 39.5c-0.7 1.4-1.7 2.6-2.9 3.6 -1.2 1-2.5 1.5-3.7 1.5 -2 0-3.7-0.6-5-1.9 -1.4-1.3-2-2.9-2-4.9l54.9-125.7c0.7-1.3 1.6-2.5 2.8-3.6 1.1-1.1 2.5-1.7 4.1-1.7 1.4 0 2.7 0.5 4 1.6 1.2 1.1 2.2 2.4 2.9 4L555.6 1794.9zM470.9 1748.1h49.8l-24.8-57.3L470.9 1748.1z" class="b" fill="#2A3642"></path><path d="M766.1 1785.9c-6.8 7.7-14.9 13.6-24.2 17.7 -9.3 4.1-19.2 6.2-29.9 6.2 -10 0-19.3-1.9-28-5.5 -8.7-3.7-16.2-8.7-22.7-15.2 -6.4-6.4-11.5-13.9-15.2-22.4 -3.7-8.5-5.6-17.6-5.6-27.3s1.9-18.9 5.6-27.5c3.7-8.7 8.8-16.3 15.2-22.9 6.4-6.6 14-11.8 22.7-15.7 8.7-3.8 18-5.8 28-5.8 19.2 0 35.4 6.1 48.5 18.2 1.6 1.6 2.4 3.4 2.4 5.3 0 1.9-0.7 3.5-2 4.8 -1.4 1.4-3 2-4.8 2 -1.1 0-2.2-0.2-3.1-0.7 -0.9-0.5-1.8-1.1-2.7-1.8 -5-5-10.8-8.6-17.4-10.8 -6.6-2.2-13.6-3.3-20.8-3.3 -8.1 0-15.7 1.6-22.8 4.8 -7.1 3.2-13.1 7.5-18.3 12.8 -5.1 5.4-9.2 11.5-12.2 18.5 -3 7-4.5 14.4-4.5 22.1 0 8 1.6 15.5 4.7 22.4 3.1 6.9 7.3 12.9 12.6 18 5.3 5.1 11.4 9.1 18.4 12 7 2.9 14.3 4.4 22 4.4 18 0 32.4-6.4 43.4-19.2 1-1.4 2.7-2.1 5.1-2.1 2 0 3.7 0.6 5 1.8 1.4 1.2 2 2.8 2 4.8 0 0.9-0.1 1.6-0.4 2.4C766.9 1784.5 766.5 1785.2 766.1 1785.9z" class="b" fill="#2A3642"></path><path d="M869.6 1728.6h70.3v-50.6c0-4.9 2.5-7.3 7.5-7.3 4.1 0 6.2 2.4 6.2 7.3v122.1c0 4.3-2.1 6.4-6.4 6.4 -4.8 0-7.3-2.1-7.3-6.4v-57.7h-70.3v57.7c0 4.3-2.2 6.4-6.6 6.4 -4.7 0-7.1-2.1-7.1-6.4V1678c0-4.8 2.4-7.3 7.3-7.3 4.3 0 6.4 2.4 6.4 7.3V1728.6z" class="b" fill="#2A3642"></path><path d="M1096.4 1670.7c4.7 0 7.1 2.3 7.1 6.8 0 4.6-2.4 6.8-7.1 6.8h-18.8v108.4h18.8c4.7 0 7.1 2.3 7.1 6.8 0 4.6-2.4 6.8-7.1 6.8h-51.9c-4.8 0-7.3-2.4-7.3-7.1 0-4.4 2.4-6.6 7.3-6.6h19.5v-108.4h-19.5c-4.8 0-7.3-2.4-7.3-7.1 0-4.4 2.4-6.6 7.3-6.6H1096.4z" class="b" fill="#2A3642"></path><path d="M1280.6 1783.6v-106.2c0-4.4 2.2-6.6 6.6-6.6 4.8 0 7.3 2.2 7.3 6.6v119.9c0 3.1-0.9 5.5-2.8 6.9 -1.9 1.5-3.8 2.2-6 2.2 -2.3 0-4.3-1.1-6-3.4l-78.7-105.2V1799.4c0 4.7-2.5 7.1-7.4 7.1 -4.6 0-6.9-2.4-6.9-7.1v-122.3c0-2 0.6-3.6 1.9-4.7 1.3-1.1 2.9-1.7 4.7-1.7 1.7 0 3.4 0.9 5.1 2.6L1280.6 1783.6z" class="b" fill="#2A3642"></path><path d="M1457.2 1670.7c2 0 3.6 0.6 4.9 1.9 1.3 1.3 1.9 2.9 1.9 4.9 0 1.9-0.6 3.5-1.9 4.8 -1.3 1.4-2.9 2-4.9 2h-60.1v40h56.6c2 0 3.6 0.7 4.9 2 1.3 1.4 1.9 3 1.9 5 0 1.9-0.6 3.5-1.9 4.9 -1.3 1.4-2.9 2.1-4.9 2.1h-56.6v54.3h59.6c1.9 0 3.5 0.6 4.8 1.9 1.4 1.3 2 2.9 2 4.9 0 2-0.7 3.6-2 4.9 -1.4 1.3-3 1.9-4.8 1.9h-66.7c-2 0-3.6-0.6-4.8-1.9 -1.2-1.3-1.8-2.9-1.8-4.9v-122.1c0-2 0.6-3.6 1.8-4.9 1.2-1.3 2.8-1.9 4.8-1.9H1457.2z" class="b" fill="#2A3642"></path><path d="M1607 1696.2c-0.1-2.6-0.8-4.8-2-6.6 -1.2-1.9-2.7-3.4-4.6-4.7 -1.9-1.3-3.9-2.2-6.2-2.9 -2.3-0.6-4.5-1-6.6-1 -6.4 0-11.2 1.8-14.3 5.3 -3.1 3.6-4.7 7.8-4.7 12.6 0 4.4 1 8.2 3 11.3 2 3.1 4.5 5.9 7.5 8.2 3 2.4 6.3 4.4 9.9 6.2 3.6 1.8 6.9 3.5 10.1 5.2 4 2.1 7.7 4.7 11.2 7.6 3.4 2.9 6.4 6.1 9 9.6 2.6 3.5 4.6 7.2 6 11.2 1.4 4 2.1 8.2 2.1 12.6 0 6.4-1.2 12-3.6 16.8 -2.4 4.8-5.5 8.7-9.3 11.9 -3.8 3.1-8.1 5.5-12.8 7.1 -4.7 1.6-9.4 2.4-14.1 2.4 -5.8 0-11.3-1-16.2-2.9 -5-1.9-9.4-4.4-13.1-7.5 -3.8-3.1-6.7-6.6-8.9-10.5 -2.1-3.9-3.2-7.8-3.2-11.6 0-2.3 0.7-4 2.1-5.2 1.4-1.2 3-1.8 4.7-1.8 1.1 0 2.5 0.4 4 1.3 1.5 0.9 2.4 2.1 2.7 3.8 0.6 3.4 1.7 6.4 3.5 9 1.8 2.6 4 4.7 6.5 6.4 2.6 1.7 5.4 3 8.4 4 3.1 0.9 6.2 1.4 9.5 1.4 3.3 0 6.4-0.5 9.5-1.5 3.1-1 5.8-2.5 8.1-4.5 2.4-2 4.2-4.5 5.7-7.5 1.4-3 2.1-6.6 2.1-10.7 0-5.6-1.1-10.1-3.3-13.7 -2.2-3.6-5.1-6.7-8.6-9.3 -3.5-2.6-7.3-5-11.5-7.1 -4.2-2.1-8.2-4.3-12.1-6.7 -3-1.8-5.9-4-8.7-6.5 -2.8-2.5-5.2-5.3-7.4-8.3 -2.1-3.1-3.8-6.3-5-9.7 -1.2-3.4-1.8-7.1-1.8-10.9 0-5.3 1-9.9 2.9-13.8 1.9-3.9 4.4-7.2 7.6-9.8 3.1-2.6 6.6-4.6 10.5-6 3.9-1.4 7.8-2 11.8-2 4 0 7.9 0.7 11.8 2 3.9 1.4 7.4 3.3 10.5 5.8 3.1 2.5 5.6 5.5 7.6 8.9 1.9 3.4 2.9 7.2 2.9 11.3 0 2-0.7 3.7-2 5.1 -1.3 1.4-3 2.1-4.9 2.1 -1.5 0-2.9-0.5-4.1-1.5C1608 1700.1 1607.3 1698.4 1607 1696.2z" class="b" fill="#2A3642"></path></svg>