<?xml version="1.0"?>
<svg xmlns="http://www.w3.org/2000/svg" viewBox="0 0 80 80">
    <path d="M 40.498047 6.9902344 C 34.591793 6.8908262 28.748375 8.3901094 23.5 11.419922 C 12.925 17.525922 7.0078125 28.642641 7.0078125 40.056641 C 7.0078125 45.651641 8.429875 51.317 11.421875 56.5 C 15.828875 64.134 22.943984 69.595953 31.458984 71.876953 C 39.972984 74.157953 48.866 72.985125 56.5 68.578125 C 67.366 62.305125 73.313563 50.742 72.976562 39 L 70.962891 39 C 70.972891 39.316 70.992188 39.632266 70.992188 39.947266 C 70.992188 50.669266 65.431047 61.110703 55.498047 66.845703 C 48.327047 70.986703 39.974563 72.085359 31.976562 69.943359 C 23.977563 67.799359 17.292344 62.671 13.152344 55.5 C 4.6063438 40.694 9.698 21.698344 24.5 13.152344 C 31.671 9.0113437 40.025438 7.9126875 48.023438 10.054688 C 51.481845 10.981622 54.686213 12.478896 57.552734 14.447266 L 53 19 L 67 22 L 64 8 L 58.994141 13.005859 C 55.865747 10.805201 52.346212 9.1431035 48.541016 8.1230469 C 45.880391 7.4102344 43.182708 7.0354199 40.498047 6.9902344 z M 40 12 A 1 1 0 0 0 39 13 A 1 1 0 0 0 40 14 A 1 1 0 0 0 41 13 A 1 1 0 0 0 40 12 z M 45.292969 12.517578 A 1 1 0 0 0 44.287109 13.322266 A 1 1 0 0 0 45.072266 14.498047 A 1 1 0 0 0 46.248047 13.712891 A 1 1 0 0 0 45.462891 12.537109 A 1 1 0 0 0 45.292969 12.517578 z M 34.738281 12.519531 A 1 1 0 0 0 34.539062 12.537109 A 1 1 0 0 0 33.753906 13.712891 A 1 1 0 0 0 34.929688 14.5 A 1 1 0 0 0 35.714844 13.324219 A 1 1 0 0 0 34.738281 12.519531 z M 29.675781 14.054688 A 1 1 0 0 0 29.285156 14.130859 A 1 1 0 0 0 28.744141 15.4375 A 1 1 0 0 0 30.050781 15.978516 A 1 1 0 0 0 30.591797 14.671875 A 1 1 0 0 0 29.675781 14.054688 z M 50.353516 14.054688 A 1 1 0 0 0 49.408203 14.671875 A 1 1 0 0 0 49.949219 15.978516 A 1 1 0 0 0 51.255859 15.4375 A 1 1 0 0 0 50.714844 14.130859 A 1 1 0 0 0 50.353516 14.054688 z M 25.009766 16.548828 A 1 1 0 0 0 24.443359 16.716797 A 1 1 0 0 0 24.167969 18.103516 A 1 1 0 0 0 25.554688 18.380859 A 1 1 0 0 0 25.832031 16.994141 A 1 1 0 0 0 25.009766 16.548828 z M 20.921875 19.908203 A 1 1 0 0 0 20.201172 20.201172 A 1 1 0 0 0 20.201172 21.615234 A 1 1 0 0 0 21.615234 21.615234 A 1 1 0 0 0 21.615234 20.201172 A 1 1 0 0 0 20.921875 19.908203 z M 17.568359 24 A 1 1 0 0 0 16.71875 24.443359 A 1 1 0 0 0 16.996094 25.830078 A 1 1 0 0 0 18.382812 25.554688 A 1 1 0 0 0 18.105469 24.167969 A 1 1 0 0 0 17.568359 24 z M 15.078125 28.667969 A 1 1 0 0 0 14.132812 29.285156 A 1 1 0 0 0 14.673828 30.591797 A 1 1 0 0 0 15.980469 30.050781 A 1 1 0 0 0 15.439453 28.744141 A 1 1 0 0 0 15.078125 28.667969 z M 13.546875 33.734375 A 1 1 0 0 0 12.539062 34.537109 A 1 1 0 0 0 13.326172 35.714844 A 1 1 0 0 0 14.501953 34.927734 A 1 1 0 0 0 13.716797 33.751953 A 1 1 0 0 0 13.546875 33.734375 z M 13 39 A 1 1 0 0 0 12 40 A 1 1 0 0 0 13 41 A 1 1 0 0 0 14 40 A 1 1 0 0 0 13 39 z M 67 39 A 1 1 0 0 0 66 40 A 1 1 0 0 0 67 41 A 1 1 0 0 0 68 40 A 1 1 0 0 0 67 39 z M 13.523438 44.267578 A 1 1 0 0 0 13.324219 44.287109 A 1 1 0 0 0 12.539062 45.462891 A 1 1 0 0 0 13.714844 46.248047 A 1 1 0 0 0 14.5 45.072266 A 1 1 0 0 0 13.523438 44.267578 z M 66.507812 44.267578 A 1 1 0 0 0 65.501953 45.072266 A 1 1 0 0 0 66.287109 46.248047 A 1 1 0 0 0 67.462891 45.462891 A 1 1 0 0 0 66.677734 44.287109 A 1 1 0 0 0 66.507812 44.267578 z M 64.966797 49.330078 A 1 1 0 0 0 64.021484 49.947266 A 1 1 0 0 0 64.5625 51.253906 A 1 1 0 0 0 65.869141 50.712891 A 1 1 0 0 0 65.328125 49.40625 A 1 1 0 0 0 64.966797 49.330078 z M 15.0625 49.332031 A 1 1 0 0 0 14.673828 49.408203 A 1 1 0 0 0 14.130859 50.714844 A 1 1 0 0 0 15.4375 51.255859 A 1 1 0 0 0 15.980469 49.949219 A 1 1 0 0 0 15.0625 49.332031 z M 62.46875 53.998047 A 1 1 0 0 0 61.619141 54.441406 A 1 1 0 0 0 61.894531 55.828125 A 1 1 0 0 0 63.283203 55.552734 A 1 1 0 0 0 63.005859 54.166016 A 1 1 0 0 0 62.46875 53.998047 z M 17.5625 54 A 1 1 0 0 0 16.996094 54.167969 A 1 1 0 0 0 16.720703 55.554688 A 1 1 0 0 0 18.107422 55.830078 A 1 1 0 0 0 18.382812 54.443359 A 1 1 0 0 0 17.5625 54 z M 20.921875 58.091797 A 1 1 0 0 0 20.201172 58.384766 A 1 1 0 0 0 20.201172 59.798828 A 1 1 0 0 0 21.615234 59.798828 A 1 1 0 0 0 21.615234 58.384766 A 1 1 0 0 0 20.921875 58.091797 z M 59.105469 58.091797 A 1 1 0 0 0 58.384766 58.384766 A 1 1 0 0 0 58.384766 59.798828 A 1 1 0 0 0 59.798828 59.798828 A 1 1 0 0 0 59.798828 58.384766 A 1 1 0 0 0 59.105469 58.091797 z M 25.019531 61.447266 A 1 1 0 0 0 24.169922 61.892578 A 1 1 0 0 0 24.447266 63.279297 A 1 1 0 0 0 25.833984 63.003906 A 1 1 0 0 0 25.558594 61.617188 A 1 1 0 0 0 25.019531 61.447266 z M 55.011719 61.447266 A 1 1 0 0 0 54.445312 61.615234 A 1 1 0 0 0 54.169922 63.003906 A 1 1 0 0 0 55.556641 63.279297 A 1 1 0 0 0 55.833984 61.892578 A 1 1 0 0 0 55.011719 61.447266 z M 29.691406 63.943359 A 1 1 0 0 0 28.746094 64.560547 A 1 1 0 0 0 29.287109 65.867188 A 1 1 0 0 0 30.59375 65.326172 A 1 1 0 0 0 30.052734 64.019531 A 1 1 0 0 0 29.691406 63.943359 z M 50.339844 63.943359 A 1 1 0 0 0 49.951172 64.019531 A 1 1 0 0 0 49.408203 65.326172 A 1 1 0 0 0 50.714844 65.867188 A 1 1 0 0 0 51.257812 64.560547 A 1 1 0 0 0 50.339844 63.943359 z M 34.759766 65.480469 A 1 1 0 0 0 33.753906 66.285156 A 1 1 0 0 0 34.539062 67.460938 A 1 1 0 0 0 35.714844 66.675781 A 1 1 0 0 0 34.929688 65.5 A 1 1 0 0 0 34.759766 65.480469 z M 45.271484 65.482422 A 1 1 0 0 0 45.072266 65.5 A 1 1 0 0 0 44.287109 66.675781 A 1 1 0 0 0 45.462891 67.462891 A 1 1 0 0 0 46.25 66.287109 A 1 1 0 0 0 45.271484 65.482422 z M 40 66 A 1 1 0 0 0 39 67 A 1 1 0 0 0 40 68 A 1 1 0 0 0 41 67 A 1 1 0 0 0 40 66 z"/>
</svg>
